<svg xmlns="http://www.w3.org/2000/svg" width="26" height="26" id="plane"><g fill="#fff" transform="translate(5 -1031.362)"><circle cx="8" cy="1044.362" r="13" fill="#239fdb" fill-rule="evenodd"></circle><path style="line-height:normal;text-indent:0;text-align:start;text-decoration-line:none;text-decoration-style:solid;text-decoration-color:#000;text-transform:none;block-progression:tb;isolation:auto;mix-blend-mode:normal" fill="#0b5ecd" d="m13.623 25.977.297-.01a13.002 13.002 0 0 0 2.557-.442c.3-.087.956-.302 1.25-.41l-5.622-5.88c.07-.146.002.355-.076.214l5.672 5.672.01-.004a13 13 0 0 0 4.346-2.79 13 13 0 0 0 3.363-5.485 13 13 0 0 0 .574-3.715L19.438 6.57a1.896 1.896 0 0 0-.3-.248h-.003a1.899 1.899 0 0 0-.317-.17l-.02-.01-.003-.001A1.934 1.934 0 0 0 18.07 6c-.496 0-.993.191-1.367.57L14.1 9.207 9.28 6.535a.5.5 0 0 0-.596.082L6.824 8.48a.5.5 0 0 0 .065.76l3.611 3.612-1.955 1.982a.5.5 0 0 0-.129.186l-1.873-1.135a.5.5 0 0 0-.615.074L4.15 15.764a.5.5 0 0 0 .106.785l5.047 5.047.07.13a.5.5 0 0 0 .209.21zM9.166 15.619l1.215 1.402.117-.07-1.334-1.334c.032-.022-.024.03.002.002z" color="#000" font-family="sans-serif" font-weight="400" transform="translate(-5 1031.362)"></path><path d="M14.072.004c-.496 0-.993.191-1.367.57l-2.603 2.637L5.282.539a.5.5 0 0 0-.239-.062v.002a.5.5 0 0 0-.357.144l-1.86 1.863a.5.5 0 0 0 .065.76l4.214 3L4.547 8.84a.5.5 0 0 0-.129.185L2.545 7.891a.5.5 0 0 0-.287-.073.5.5 0 0 0-.328.147L.152 9.77a.5.5 0 0 0 .106.785L3.643 12.5l1.732 3.232a.5.5 0 0 0 .799.118l1.775-1.801a.5.5 0 0 0 .082-.594l-.926-1.685 2.727-2.764 2.85 4.037a.5.5 0 0 0 .767.06l1.82-1.874a.5.5 0 0 0 .08-.584l-2.495-4.7 2.585-2.62a1.964 1.964 0 0 0 0-2.75c-.374-.38-.87-.571-1.367-.571zm0 .988c.235 0 .469.095.655.283a.954.954 0 0 1 0 1.348l-8.24 8.346L5.165 9.62a.5.5 0 0 0 .09-.078l2.959-2.998.012-.01a.5.5 0 0 0 .003-.004l2.317-2.347 2.871-2.909a.917.917 0 0 1 .654-.283Zm-8.945.606 4.246 2.351-.475.483-1.082 1.095-3.865-2.752 1.176-1.177Zm6.99 5.093 2.18 4.1-1.147 1.184-2.603-3.692 1.57-1.592zM2.363 8.95l1.828 1.108 1.893 1.933.89 1.621-1.037 1.051-1.48-2.762a.5.5 0 0 0-.191-.195l-2.948-1.697 1.045-1.059Z" color="#000" font-family="sans-serif" font-weight="400" overflow="visible" transform="translate(-1.001 1037.358)" style="line-height:normal;text-indent:0;text-align:start;text-decoration-line:none;text-decoration-style:solid;text-decoration-color:#000;text-transform:none;block-progression:tb;isolation:auto;mix-blend-mode:normal"></path></g></svg>