<svg xmlns="http://www.w3.org/2000/svg" xmlns:xlink="http://www.w3.org/1999/xlink" width="26" height="26" id="plane"><defs><linearGradient id="b" x1="906.952" x2="931.379" y1="515.915" y2="546.094" gradientTransform="translate(-704.407 625.151) scale(.78112)" gradientUnits="userSpaceOnUse" xlink:href="#a"></linearGradient><linearGradient id="a"><stop offset="0" stop-color="#ffd800"></stop><stop offset="1" stop-color="#ff6100"></stop></linearGradient></defs><g transform="translate(-1.03 -1096.225) scale(1.06642)"><rect width="24.381" height="24.381" x=".965" y="1027.95" fill="url(#b)" rx="5.152" ry="5.152"></rect><path style="line-height:normal;text-indent:0;text-align:start;text-decoration-line:none;text-decoration-style:solid;text-decoration-color:#000;text-transform:none;block-progression:tb;isolation:auto;mix-blend-mode:normal" fill="#fff" d="M17.907 1034.517a.86.86 0 0 0-.613.266l-2.693 2.727-2.172 2.201h-.004l-.01.01-2.775 2.812a.456.456 0 0 1-.085.073l1.239 1.264 7.727-7.826a.894.894 0 0 0 0-1.264.86.86 0 0 0-.614-.266zm-8.295.662-1.102 1.104 3.624 2.58 1.015-1.027.445-.452-3.982-2.205zm6.368 4.59-1.472 1.492 2.441 3.461 1.075-1.11-2.044-3.844zm-8.96 2.116-.98.993 2.765 1.592a.468.468 0 0 1 .18.183l1.387 2.59.973-.986-.835-1.52-1.775-1.813-1.714-1.039z" color="#000" font-family="sans-serif" font-weight="400" overflow="visible"></path></g></svg>