<svg xmlns="http://www.w3.org/2000/svg" enable-background="new 0 0 512 512" viewBox="0 0 512 512" id="rocket"><linearGradient id="a" x1="17.414" x2="502.348" y1="17.407" y2="502.342" gradientTransform="matrix(1 0 0 -1 0 512)" gradientUnits="userSpaceOnUse"><stop offset="0" stop-color="#ed325d"></stop><stop offset=".115" stop-color="#ee3f5c"></stop><stop offset=".329" stop-color="#f0625b"></stop><stop offset=".619" stop-color="#f39958"></stop><stop offset=".968" stop-color="#f7e654"></stop><stop offset="1" stop-color="#f7ed54"></stop></linearGradient><path fill="url(#a)" d="M144.886,410.011l17.646,17.646c-2.887,6.917-7.134,13.398-12.799,19.009c-14.488,14.488-70.095,37.417-110.016,52.666c-16.938,6.482-33.55-10.13-27.068-27.069c15.249-39.921,38.179-95.529,52.666-110.016c5.664-5.61,12.091-9.858,19.007-12.745l17.646,17.592c-2.233,2.832-4.411,5.719-6.535,8.551c-37.199,49.562-39.54,63.069-30.772,71.783c1.852,1.852,5.119,4.085,10.349,4.085C88.08,451.513,118.035,430.816,144.886,410.011z M103.221,285.671c11.873-38.669,35.456-82.185,67.916-125.375l-65.738-1.743c-18.082-0.436-35.565,6.536-48.364,19.28L5.84,229.084c-10.784,10.784-5.828,29.192,8.878,33.114L103.221,285.671z M225.382,405.055l24.454,92.206c3.921,14.76,22.329,19.716,33.114,8.932l51.196-51.196c12.799-12.799,19.77-30.282,19.281-48.364l-1.852-70.912C308.167,368.674,264.379,392.8,225.382,405.055z M477.228,0.051c-31.411,1.718-80.471,8.394-131.698,30.47l135.941,135.94c22.071-51.237,28.736-100.31,30.447-131.727C512.986,15.125,496.836-1.022,477.228,0.051z M91.729,322.815c-5.174,5.174-5.174,13.507,0,18.681l16.938,16.938c5.828-7.353,11.547-14.433,16.612-20.696l-14.923-14.923C105.043,317.612,96.83,317.715,91.729,322.815z M174.023,386.483c-6.1,5.119-13.071,10.893-20.533,16.775l17.047,17.047c5.119,5.119,13.507,5.119,18.627,0c5.174-5.174,5.174-13.507,0-18.681L174.023,386.483z M72.336,439.743c10.002,10.002,104.575-68.347,116.101-79.874c11.617-11.617,30.193-46.416,20.19-56.418c-10.081-10.081-44.88,8.495-56.497,20.112C140.604,335.089,62.255,429.662,72.336,439.743z M334.908,35.303l141.823,141.822C424.394,288.12,282.788,383.869,200.329,398.302c-2.145-3.659-3.878-4.578-17.918-18.844c8.278-7.026,13.562-11.71,13.725-11.873c14.186-14.186,36.737-55.193,20.205-71.838c-16.57-16.573-56.707,4.913-71.891,20.097c-2.342,2.342-6.59,7.134-12.091,13.562c-13.968-13.701-15.022-15.512-18.627-17.701C128.188,229.112,224.369,87.229,334.908,35.303z M368.839,143.195c-23.909-23.909-62.687-23.964-86.596,0c-23.909,23.909-23.909,62.687,0,86.597c23.909,23.909,62.687,23.909,86.596,0C392.748,205.828,392.748,167.104,368.839,143.195z"></path></svg>